<?xml version="1.0" standalone="no"?>
<!DOCTYPE svg PUBLIC "-//W3C//DTD SVG 20010904//EN"
 "http://www.w3.org/TR/2001/REC-SVG-20010904/DTD/svg10.dtd">
<svg version="1.0" xmlns="http://www.w3.org/2000/svg"
 width="1294.000000pt" height="416.000000pt" viewBox="0 0 1294.000000 416.000000"
 preserveAspectRatio="xMidYMid meet">

<g transform="translate(0.000000,416.000000) scale(0.100000,-0.100000)"
fill="#000000" stroke="none">
<path d="M977 4088 c-13 -29 -227 -486 -475 -1015 -248 -529 -462 -993 -474
-1030 -21 -62 -23 -86 -23 -263 0 -193 1 -196 32 -290 111 -326 373 -565 711
-647 55 -13 147 -17 507 -20 l441 -4 189 396 c105 219 192 401 193 406 2 5
-232 9 -555 9 -370 0 -571 4 -598 11 -78 21 -136 107 -119 176 4 15 169 359
367 763 198 404 360 740 360 745 0 8 -352 552 -495 763 l-36 54 -25 -54z"/>
<path d="M1647 3258 c-19 -40 -105 -223 -191 -406 -86 -183 -156 -335 -156
-337 0 -3 264 -5 588 -5 553 0 589 -1 622 -19 50 -26 82 -84 77 -141 -3 -34
-93 -228 -362 -783 -208 -430 -355 -744 -351 -753 6 -16 559 -785 562 -781 8
10 884 1929 905 1982 47 121 62 220 56 379 -5 146 -18 211 -63 326 -97 244
-308 451 -558 545 -147 55 -167 57 -648 62 l-448 5 -33 -74z"/>
<path d="M4372 2673 c-62 -18 -133 -78 -165 -137 -19 -36 -22 -60 -25 -188 -5
-182 8 -228 77 -298 75 -75 100 -80 409 -80 l264 0 30 -30 c29 -29 30 -34 26
-97 -7 -108 15 -103 -414 -103 l-364 0 0 -125 0 -125 398 0 c443 0 455 1 530
66 23 19 53 60 69 92 27 55 28 63 28 202 0 130 -2 150 -23 195 -30 65 -83 118
-146 147 -48 22 -65 23 -326 26 -326 4 -310 -1 -310 108 0 66 2 74 26 93 26
20 38 21 370 21 l344 0 0 125 0 125 -372 -1 c-306 0 -382 -3 -426 -16z"/>
<path d="M5715 2656 c-65 -30 -131 -104 -150 -169 -22 -75 -22 -720 0 -795 22
-74 70 -131 140 -167 l59 -30 380 0 c344 0 385 2 419 18 52 24 114 83 140 131
22 40 22 49 22 441 0 453 2 439 -82 522 -74 71 -87 73 -507 73 -368 0 -371 0
-421 -24z m749 -248 c14 -19 16 -67 16 -324 l0 -303 -26 -20 c-26 -20 -38 -21
-316 -21 l-289 0 -24 25 -25 24 0 299 c0 286 1 299 20 320 21 22 25 22 325 22
303 0 304 0 319 -22z"/>
<path d="M7090 2085 l0 -596 123 3 122 3 3 232 2 233 388 2 387 3 3 123 3 122
-391 0 -390 0 0 110 0 110 410 0 410 0 0 125 0 125 -535 0 -535 0 0 -595z"/>
<path d="M8382 2558 l3 -123 218 -3 217 -2 0 -470 0 -470 125 0 125 0 0 470 0
470 215 0 215 0 0 125 0 125 -560 0 -561 0 3 -122z"/>
<path d="M9782 2088 l3 -593 440 -3 c487 -2 506 -1 586 61 23 17 56 57 73 87
31 55 31 55 31 210 0 151 -1 158 -28 209 -27 52 -27 54 -12 104 20 68 20 256
0 324 -19 65 -85 139 -150 169 l-50 24 -448 0 -447 0 2 -592z m838 320 c16
-17 20 -35 20 -85 0 -54 -4 -68 -25 -88 l-24 -25 -281 0 -280 0 0 110 0 110
285 0 c280 0 285 0 305 -22z m29 -474 c32 -41 30 -136 -4 -169 l-24 -25 -296
0 -295 0 0 110 0 110 299 0 300 0 20 -26z"/>
<path d="M11260 2085 l0 -595 125 0 125 0 0 595 0 595 -125 0 -125 0 0 -595z"/>
<path d="M11850 2560 l0 -120 365 -2 366 -3 -376 -310 -375 -309 2 -161 3
-160 540 0 540 0 3 122 3 123 -393 2 -393 3 345 284 c190 156 360 298 378 314
l32 31 0 153 0 153 -520 0 -520 0 0 -120z"/>
</g>
</svg>
